<svg width="1000" height="1000" xmlns="http://www.w3.org/2000/svg">
  <!-- Background -->
  <rect width="100%" height="100%" fill="none"/>
  
  <!-- Definitions for reusable elements -->
  <defs>
    <!-- Gradient for elements -->
    <linearGradient id="techGradient" x1="0%" y1="0%" x2="100%" y2="100%">
      <stop offset="0%" stop-color="#4A2FBD" stop-opacity="0.15"/>
      <stop offset="100%" stop-color="#AA367C" stop-opacity="0.15"/>
    </linearGradient>
    
    <!-- Circuit pattern -->
    <pattern id="circuitPattern" x="0" y="0" width="200" height="200" patternUnits="userSpaceOnUse">
      <!-- Horizontal lines -->
      <path d="M20,50 L180,50" stroke="#AA367C" stroke-width="1" stroke-opacity="0.2"/>
      <path d="M20,100 L180,100" stroke="#4A2FBD" stroke-width="1" stroke-opacity="0.2"/>
      <path d="M20,150 L180,150" stroke="#AA367C" stroke-width="1" stroke-opacity="0.2"/>
      
      <!-- Vertical lines -->
      <path d="M50,20 L50,180" stroke="#4A2FBD" stroke-width="1" stroke-opacity="0.2"/>
      <path d="M100,20 L100,180" stroke="#AA367C" stroke-width="1" stroke-opacity="0.2"/>
      <path d="M150,20 L150,180" stroke="#4A2FBD" stroke-width="1" stroke-opacity="0.2"/>
      
      <!-- Connection dots -->
      <circle cx="50" cy="50" r="3" fill="#AA367C" fill-opacity="0.3"/>
      <circle cx="50" cy="100" r="3" fill="#4A2FBD" fill-opacity="0.3"/>
      <circle cx="50" cy="150" r="3" fill="#AA367C" fill-opacity="0.3"/>
      <circle cx="100" cy="50" r="3" fill="#4A2FBD" fill-opacity="0.3"/>
      <circle cx="100" cy="100" r="3" fill="#AA367C" fill-opacity="0.3"/>
      <circle cx="100" cy="150" r="3" fill="#4A2FBD" fill-opacity="0.3"/>
      <circle cx="150" cy="50" r="3" fill="#AA367C" fill-opacity="0.3"/>
      <circle cx="150" cy="100" r="3" fill="#4A2FBD" fill-opacity="0.3"/>
      <circle cx="150" cy="150" r="3" fill="#AA367C" fill-opacity="0.3"/>
    </pattern>
    
    <!-- Code brackets pattern -->
    <pattern id="codeBrackets" x="0" y="0" width="100" height="100" patternUnits="userSpaceOnUse">
      <!-- Opening bracket -->
      <path d="M30,20 L20,20 L20,80 L30,80" stroke="#4A2FBD" stroke-width="1.5" stroke-opacity="0.2" fill="none"/>
      <!-- Closing bracket -->
      <path d="M70,20 L80,20 L80,80 L70,80" stroke="#AA367C" stroke-width="1.5" stroke-opacity="0.2" fill="none"/>
    </pattern>
    
    <!-- Hexagon pattern -->
    <pattern id="hexPattern" x="0" y="0" width="150" height="150" patternUnits="userSpaceOnUse">
      <path d="M75,25 L125,50 L125,100 L75,125 L25,100 L25,50 Z" fill="url(#techGradient)" stroke="#4A2FBD" stroke-width="1" stroke-opacity="0.15"/>
    </pattern>
  </defs>
  
  <!-- Main background elements -->
  <rect x="0" y="0" width="100%" height="100%" fill="url(#circuitPattern)" opacity="0.5">
    <animate attributeName="opacity" values="0.4;0.6;0.4" dur="10s" repeatCount="indefinite"/>
  </rect>
  
  <rect x="0" y="0" width="100%" height="100%" fill="url(#codeBrackets)" opacity="0.4">
    <animate attributeName="opacity" values="0.3;0.5;0.3" dur="15s" repeatCount="indefinite"/>
  </rect>
  
  <rect x="0" y="0" width="100%" height="100%" fill="url(#hexPattern)" opacity="0.3">
    <animate attributeName="opacity" values="0.2;0.4;0.2" dur="20s" repeatCount="indefinite"/>
  </rect>
  
  <!-- Decorative elements -->
  <!-- Large hexagons -->
  <path d="M200,100 L300,150 L300,250 L200,300 L100,250 L100,150 Z" fill="url(#techGradient)" stroke="#AA367C" stroke-width="1" stroke-opacity="0.2">
    <animate attributeName="opacity" values="0.2;0.4;0.2" dur="12s" repeatCount="indefinite"/>
  </path>
  
  <path d="M800,700 L900,750 L900,850 L800,900 L700,850 L700,750 Z" fill="url(#techGradient)" stroke="#4A2FBD" stroke-width="1" stroke-opacity="0.2">
    <animate attributeName="opacity" values="0.2;0.4;0.2" dur="14s" repeatCount="indefinite"/>
  </path>
  
  <!-- Code brackets -->
  <path d="M400,200 L350,200 L350,500 L400,500" stroke="#4A2FBD" stroke-width="2" stroke-opacity="0.15" fill="none">
    <animate attributeName="stroke-opacity" values="0.1;0.25;0.1" dur="8s" repeatCount="indefinite"/>
  </path>
  
  <path d="M600,200 L650,200 L650,500 L600,500" stroke="#AA367C" stroke-width="2" stroke-opacity="0.15" fill="none">
    <animate attributeName="stroke-opacity" values="0.1;0.25;0.1" dur="8s" repeatCount="indefinite"/>
  </path>
  
  <!-- Circuit nodes -->
  <circle cx="200" cy="600" r="5" fill="#4A2FBD" fill-opacity="0.2">
    <animate attributeName="r" values="5;8;5" dur="5s" repeatCount="indefinite"/>
    <animate attributeName="fill-opacity" values="0.1;0.3;0.1" dur="5s" repeatCount="indefinite"/>
  </circle>
  
  <circle cx="800" cy="300" r="5" fill="#AA367C" fill-opacity="0.2">
    <animate attributeName="r" values="5;8;5" dur="6s" repeatCount="indefinite"/>
    <animate attributeName="fill-opacity" values="0.1;0.3;0.1" dur="6s" repeatCount="indefinite"/>
  </circle>
  
  <!-- Connecting lines -->
  <path d="M200,600 L400,600 L400,400 L600,400 L600,300 L800,300" stroke="#4A2FBD" stroke-width="1" stroke-opacity="0.15" fill="none">
    <animate attributeName="stroke-opacity" values="0.1;0.25;0.1" dur="10s" repeatCount="indefinite"/>
  </path>
</svg>